<?xml version="1.0" standalone="no"?>
<!DOCTYPE svg PUBLIC "-//W3C//DTD SVG 20010904//EN"
 "http://www.w3.org/TR/2001/REC-SVG-20010904/DTD/svg10.dtd">
<svg version="1.0" xmlns="http://www.w3.org/2000/svg"
 width="900.000000pt" height="520.000000pt" viewBox="0 0 900.000000 520.000000"
 preserveAspectRatio="xMidYMid meet">

<g transform="translate(0.000000,520.000000) scale(0.100000,-0.100000)"
fill="#000000" stroke="none">
<path d="M4640 5049 c-113 -34 -172 -163 -125 -275 14 -35 891 -921 947 -958
69 -45 173 -37 234 16 63 55 85 127 64 206 -12 43 -50 84 -474 510 -254 255
-477 472 -498 482 -47 25 -104 32 -148 19z"/>
<path d="M3737 3982 l-687 -687 478 -478 477 -477 258 258 259 257 115 -120
c203 -213 491 -522 813 -875 579 -634 853 -916 925 -951 71 -34 208 -34 277 0
115 56 182 164 183 291 0 65 -4 84 -33 142 -28 58 -60 93 -250 275 -269 259
-408 389 -932 869 -460 422 -743 689 -749 705 -2 6 112 127 253 268 l256 256
-478 477 -477 478 -688 -688z"/>
<path d="M2775 3201 c-94 -43 -134 -137 -104 -246 9 -34 81 -110 472 -503 305
-305 476 -469 503 -482 74 -36 177 -17 231 41 51 56 67 146 38 217 -21 51
-913 944 -971 972 -50 25 -117 25 -169 1z"/>
<path d="M2477 1089 c-57 -13 -93 -35 -122 -74 -43 -55 -55 -114 -55 -262 l0
-133 741 0 741 0 -4 153 c-3 136 -6 157 -27 200 -29 59 -85 102 -152 116 -61
13 -1066 13 -1122 0z"/>
<path d="M2160 340 l0 -120 880 0 880 0 0 120 0 120 -880 0 -880 0 0 -120z"/>
</g>
</svg>
